ModelForces
version=1
nRows=4
nColumns=203
inDegrees=no

This file contains the forces exerted on a model during a simulation.

A force is a generalized force, meaning that it can be either a force (N) or a torque (Nm).

Units are S.I. units (second, meters, Newtons, ...)
Angles are in degrees.

endheader
time	glut_med1_r	glut_med2_r	glut_med3_r	glut_min1_r	glut_min2_r	glut_min3_r	semimem_r	semiten_r	bifemlh_r	bifemsh_r	sar_r	add_long_r	add_brev_r	add_mag1_r	add_mag2_r	add_mag3_r	tfl_r	pect_r	grac_r	glut_max1_r	glut_max2_r	glut_max3_r	iliacus_r	psoas_r	quad_fem_r	gem_r	peri_r	rect_fem_r	vas_med_r	vas_int_r	vas_lat_r	med_gas_r	lat_gas_r	soleus_r	tib_post_r	flex_dig_r	flex_hal_r	tib_ant_r	per_brev_r	per_long_r	per_tert_r	ext_dig_r	ext_hal_r	glut_med1_l	glut_med2_l	glut_med3_l	glut_min1_l	glut_min2_l	glut_min3_l	semimem_l	semiten_l	bifemlh_l	bifemsh_l	sar_l	add_long_l	add_brev_l	add_mag1_l	add_mag2_l	add_mag3_l	tfl_l	pect_l	grac_l	glut_max1_l	glut_max2_l	glut_max3_l	iliacus_l	psoas_l	quad_fem_l	gem_l	peri_l	rect_fem_l	vas_med_l	vas_int_l	vas_lat_l	med_gas_l	lat_gas_l	soleus_l	tib_post_l	flex_dig_l	flex_hal_l	tib_ant_l	per_brev_l	per_long_l	per_tert_l	ext_dig_l	ext_hal_l	ercspn_r	ercspn_l	intobl_r	intobl_l	extobl_r	extobl_l	femur_lat_meniscii_l.femur_lat_l.force.X	femur_lat_meniscii_l.femur_lat_l.force.Y	femur_lat_meniscii_l.femur_lat_l.force.Z	femur_lat_meniscii_l.femur_lat_l.torque.X	femur_lat_meniscii_l.femur_lat_l.torque.Y	femur_lat_meniscii_l.femur_lat_l.torque.Z	femur_lat_meniscii_l.meniscus_lat_l.force.X	femur_lat_meniscii_l.meniscus_lat_l.force.Y	femur_lat_meniscii_l.meniscus_lat_l.force.Z	femur_lat_meniscii_l.meniscus_lat_l.torque.X	femur_lat_meniscii_l.meniscus_lat_l.torque.Y	femur_lat_meniscii_l.meniscus_lat_l.torque.Z	femur_med_meniscii_l.femur_med_l.force.X	femur_med_meniscii_l.femur_med_l.force.Y	femur_med_meniscii_l.femur_med_l.force.Z	femur_med_meniscii_l.femur_med_l.torque.X	femur_med_meniscii_l.femur_med_l.torque.Y	femur_med_meniscii_l.femur_med_l.torque.Z	femur_med_meniscii_l.meniscus_med_l.force.X	femur_med_meniscii_l.meniscus_med_l.force.Y	femur_med_meniscii_l.meniscus_med_l.force.Z	femur_med_meniscii_l.meniscus_med_l.torque.X	femur_med_meniscii_l.meniscus_med_l.torque.Y	femur_med_meniscii_l.meniscus_med_l.torque.Z	femur_lat_meniscii_r.femur_lat_r.force.X	femur_lat_meniscii_r.femur_lat_r.force.Y	femur_lat_meniscii_r.femur_lat_r.force.Z	femur_lat_meniscii_r.femur_lat_r.torque.X	femur_lat_meniscii_r.femur_lat_r.torque.Y	femur_lat_meniscii_r.femur_lat_r.torque.Z	femur_lat_meniscii_r.meniscus_lat_r.force.X	femur_lat_meniscii_r.meniscus_lat_r.force.Y	femur_lat_meniscii_r.meniscus_lat_r.force.Z	femur_lat_meniscii_r.meniscus_lat_r.torque.X	femur_lat_meniscii_r.meniscus_lat_r.torque.Y	femur_lat_meniscii_r.meniscus_lat_r.torque.Z	femur_med_meniscii_r.femur_med_r.force.X	femur_med_meniscii_r.femur_med_r.force.Y	femur_med_meniscii_r.femur_med_r.force.Z	femur_med_meniscii_r.femur_med_r.torque.X	femur_med_meniscii_r.femur_med_r.torque.Y	femur_med_meniscii_r.femur_med_r.torque.Z	femur_med_meniscii_r.meniscus_med_r.force.X	femur_med_meniscii_r.meniscus_med_r.force.Y	femur_med_meniscii_r.meniscus_med_r.force.Z	femur_med_meniscii_r.meniscus_med_r.torque.X	femur_med_meniscii_r.meniscus_med_r.torque.Y	femur_med_meniscii_r.meniscus_med_r.torque.Z	femur_med_tibia_l.tibia_upper_l.force.X	femur_med_tibia_l.tibia_upper_l.force.Y	femur_med_tibia_l.tibia_upper_l.force.Z	femur_med_tibia_l.tibia_upper_l.torque.X	femur_med_tibia_l.tibia_upper_l.torque.Y	femur_med_tibia_l.tibia_upper_l.torque.Z	femur_med_tibia_l.femur_med_l.force.X	femur_med_tibia_l.femur_med_l.force.Y	femur_med_tibia_l.femur_med_l.force.Z	femur_med_tibia_l.femur_med_l.torque.X	femur_med_tibia_l.femur_med_l.torque.Y	femur_med_tibia_l.femur_med_l.torque.Z	femur_lat_tibia_l.tibia_upper_l.force.X	femur_lat_tibia_l.tibia_upper_l.force.Y	femur_lat_tibia_l.tibia_upper_l.force.Z	femur_lat_tibia_l.tibia_upper_l.torque.X	femur_lat_tibia_l.tibia_upper_l.torque.Y	femur_lat_tibia_l.tibia_upper_l.torque.Z	femur_lat_tibia_l.femur_lat_l.force.X	femur_lat_tibia_l.femur_lat_l.force.Y	femur_lat_tibia_l.femur_lat_l.force.Z	femur_lat_tibia_l.femur_lat_l.torque.X	femur_lat_tibia_l.femur_lat_l.torque.Y	femur_lat_tibia_l.femur_lat_l.torque.Z	femur_med_tibia_r.tibia_upper_r.force.X	femur_med_tibia_r.tibia_upper_r.force.Y	femur_med_tibia_r.tibia_upper_r.force.Z	femur_med_tibia_r.tibia_upper_r.torque.X	femur_med_tibia_r.tibia_upper_r.torque.Y	femur_med_tibia_r.tibia_upper_r.torque.Z	femur_med_tibia_r.femur_med_r.force.X	femur_med_tibia_r.femur_med_r.force.Y	femur_med_tibia_r.femur_med_r.force.Z	femur_med_tibia_r.femur_med_r.torque.X	femur_med_tibia_r.femur_med_r.torque.Y	femur_med_tibia_r.femur_med_r.torque.Z	femur_lat_tibia_r.tibia_upper_r.force.X	femur_lat_tibia_r.tibia_upper_r.force.Y	femur_lat_tibia_r.tibia_upper_r.force.Z	femur_lat_tibia_r.tibia_upper_r.torque.X	femur_lat_tibia_r.tibia_upper_r.torque.Y	femur_lat_tibia_r.tibia_upper_r.torque.Z	femur_lat_tibia_r.femur_lat_r.force.X	femur_lat_tibia_r.femur_lat_r.force.Y	femur_lat_tibia_r.femur_lat_r.force.Z	femur_lat_tibia_r.femur_lat_r.torque.X	femur_lat_tibia_r.femur_lat_r.torque.Y	femur_lat_tibia_r.femur_lat_r.torque.Z	aACL_R	pACL_R	aPCL_R	pPCL_R	aMCL_R	mMCL_R	pMCL_R	aLCL_R	mLCL_R	pLCL_R	aPCL_L	pPCL_L	aMCL_L	aLCL_L
      0.09123320	     18.02759665	     12.79337811	     13.82467948	      5.81130179	      6.63372328	      7.61242440	    147.36706055	    186.16253888	    162.67813333	    312.43657848	    135.67053577	     12.79030304	      8.98597925	      6.56843826	      5.62289685	      9.71251852	      6.72971911	      4.91989615	    110.66641720	      8.28221275	     12.60816391	      9.52730949	     35.83175001	     27.96201399	      8.05955463	      5.02842603	     11.15907609	     43.93604694	     32.21457610	     35.32564454	     49.87696943	      3.82545931	      3.95359668	      0.00000000	      0.00000000	      0.00000000	      0.00000000	     35.39409396	     10.71362043	     13.97578537	     23.33791648	     22.79673687	      6.08175016	     18.02759665	     12.79337811	     13.82467948	      5.81130179	      6.63372328	      7.61242440	     22.93118024	      9.69517354	     19.81696873	     16.05091387	      3.30959138	     12.79030304	      8.98597925	      6.56843826	      5.62289685	      9.71251852	      7.64976073	      4.91989615	      3.44031498	      8.28221275	     12.60816391	      9.52730949	     35.83175001	     27.96201399	      8.05955463	      5.02842603	     11.15907609	     27.32233053	     15.24043796	     17.70562929	     19.03149506	     39.70576421	     18.47917689	     85.02024631	     65.79245560	      9.06917295	      8.91430648	     21.22387122	     11.50998432	     27.91430504	      4.31734220	     14.08582432	      4.40018503	     54.74795241	     54.74795241	     20.95120224	     20.95120224	     37.69807882	     37.69807882	      2.76307435	     50.99597937	     -9.56042239	      5.21997485	     -0.02578839	      1.48581788	     -2.76307435	    -50.99597937	      9.56042239	     -1.74637766	      0.02558040	     -0.48301696	     -3.31599387	     20.97615968	     -3.40468921	      0.94473225	     -0.02138609	     -1.00501789	      3.31599387	    -20.97615968	      3.40468921	      0.28075727	      0.00368718	     -0.29758878	     -9.20417251	    157.35971064	      9.23825458	     -7.51144079	     -0.12642474	     -5.11046774	      9.20417251	   -157.35971064	     -9.23825458	      4.37528287	      0.03863426	      3.48125794	     -2.82465873	    224.34782049	     15.75268353	     -1.70182875	      0.20204390	     -2.71340847	      2.82465873	   -224.34782049	    -15.75268353	     -3.75929539	     -0.38495164	      4.33910866	      0.00000000	      0.00000000	      0.00000000	      0.00000000	      0.00000000	      0.00000000	      0.00000000	      0.00000000	      0.00000000	      0.00000000	      0.00000000	      0.00000000	      0.00000000	      0.00000000	      0.00000000	      0.00000000	      0.00000000	      0.00000000	      0.00000000	      0.00000000	      0.00000000	      0.00000000	      0.00000000	      0.00000000	    -21.94124219	   -681.43320962	      3.56380304	    -12.74683369	      0.43330678	      9.21328343	     21.94124219	    681.43320962	     -3.56380304	     15.87175921	     -0.44689757	      7.42723635	     22.64760945	   -112.89958508	    -28.56105143	      3.74261301	      0.12024729	      2.49976512	    -22.64760945	    112.89958508	     28.56105143	    -14.40245073	     -0.40664880	     -9.82040702	     66.28143928	     70.34014251	      0.00000000	      0.00000000	      0.00000000	      0.00000000	      0.00000000	      0.00000000	      0.00000000	      0.00000000	      0.00000000	      0.00000000	      0.00000001	      0.00000000
      0.09165403	     17.96801548	     12.75291022	     13.78052098	      5.79355907	      6.61411130	      7.58729211	    146.55602712	    185.63630412	    161.75351513	    311.72472577	    135.51880848	     12.74946498	      8.95878312	      6.54768482	      5.60480124	      9.68008579	      6.75455669	      4.90476642	    110.49311386	      8.25581091	     12.56793132	      9.49660367	     35.75569540	     27.87574402	      8.03447215	      5.01581305	     11.12154372	     43.82205461	     38.05161824	     38.54725901	     49.03818582	      0.23710755	      4.02481953	      0.00000000	      0.00000000	      0.00000000	      0.00000000	     35.45423114	     10.38868656	     13.58799798	     20.44540937	     22.85097319	      6.08791255	     17.96801548	     12.75291022	     13.78052098	      5.79355907	      6.61411130	      7.58729211	     22.85426502	      9.66322880	     19.75007325	     16.00088133	      3.29953089	     12.74946498	      8.95878312	      6.54768482	      5.60480124	      9.68008579	      7.62968465	      4.90476642	      3.42968982	      8.25581091	     12.56793132	      9.49660367	     35.75569540	     27.87574402	      8.03447215	      5.01581305	     11.12154372	     27.23003645	     15.19076494	     17.64741045	     18.96868885	     39.57430924	     18.41774256	     84.73347410	     65.66174063	      9.03838576	      8.88372499	     21.15236465	     11.47077316	     27.82905541	      4.30405154	     14.03784411	      4.38505846	     54.58046676	     54.58046676	     20.88312700	     20.88312700	     37.63491593	     37.63491593	      2.76307435	     50.99597937	     -9.56042239	      5.21997485	     -0.02578839	      1.48581788	     -2.76307435	    -50.99597937	      9.56042239	     -1.74637766	      0.02558040	     -0.48301696	     -3.31599387	     20.97615968	     -3.40468921	      0.94473225	     -0.02138609	     -1.00501789	      3.31599387	    -20.97615968	      3.40468921	      0.28075727	      0.00368718	     -0.29758878	    -10.64177821	    157.34660114	      9.48538493	     -7.61197521	     -0.16173004	     -5.72250824	     10.64177821	   -157.34660114	     -9.48538493	      4.37924101	      0.07390293	      3.55256531	     -4.27134192	    227.40802241	     15.73462228	     -1.62432801	      0.24723839	     -3.35605180	      4.27134192	   -227.40802241	    -15.73462228	     -3.82458218	     -0.42731924	      4.47954059	      0.00000000	      0.00000000	      0.00000000	      0.00000000	      0.00000000	      0.00000000	      0.00000000	      0.00000000	      0.00000000	      0.00000000	      0.00000000	      0.00000000	      0.00000000	      0.00000000	      0.00000000	      0.00000000	      0.00000000	      0.00000000	      0.00000000	      0.00000000	      0.00000000	      0.00000000	      0.00000000	      0.00000000	    -18.32495092	   -669.90540509	      2.95248441	    -12.52842062	      0.35861468	      9.27928824	     18.32495092	    669.90540509	     -2.95248441	     15.38220297	     -0.36985947	      5.88166457	     22.56833390	   -109.72216284	    -27.78515143	      3.63411363	      0.12499271	      2.46479600	    -22.56833390	    109.72216284	     27.78515143	    -14.00618650	     -0.40437400	     -9.78619157	     63.66866337	     67.52984832	      0.00000000	      0.00000000	      0.00000000	      0.00000000	      0.00000000	      0.00000000	      0.00000000	      0.00000000	      0.00000000	      0.00000000	      0.00000001	      0.00000000
      0.09222437	     17.88782046	     12.69844443	     13.72108878	      5.76967766	      6.58771587	      7.55346500	    145.32351982	    184.76685484	    160.37016966	    310.19876133	    135.18733906	     12.69450158	      8.92217677	      6.51975325	      5.58044721	      9.63642844	      6.78678962	      4.88440253	    110.13942949	      8.22027833	     12.51378446	      9.45527784	     35.65334996	     27.75963773	      8.00071291	      4.99883945	     11.07098852	     43.62888818	     36.06844464	     37.48745805	     48.99920814	      0.00000000	      4.15995534	      0.00000000	      0.00000000	      0.00000000	      0.00000000	     35.54365664	      9.94156412	     13.06030945	     22.98455189	     22.92815214	      6.09769006	     17.88782046	     12.69844443	     13.72108878	      5.76967766	      6.58771587	      7.55346500	     22.75067399	      9.62023315	     19.65999689	     15.93354168	      3.28598948	     12.69450158	      8.92217677	      6.51975325	      5.58044721	      9.63642844	      7.60265422	      4.88440253	      3.41538889	      8.22027833	     12.51378446	      9.45527784	     35.65334996	     27.75963773	      8.00071291	      4.99883945	     11.07098852	     27.10576879	     15.12391513	     17.56905689	     18.88416423	     39.39718627	     18.33496873	     84.34719997	     65.48570136	      8.99696703	      8.84258848	     21.05609765	     11.41797139	     27.71430842	      4.28616496	     13.97316123	      4.36466786	     54.35503490	     54.35503490	     20.79150470	     20.79150470	     37.54992434	     37.54992434	      2.76307435	     50.99597937	     -9.56042239	      5.21997485	     -0.02578839	      1.48581788	     -2.76307435	    -50.99597937	      9.56042239	     -1.74637766	      0.02558040	     -0.48301696	     -3.31599387	     20.97615968	     -3.40468921	      0.94473225	     -0.02138609	     -1.00501789	      3.31599387	    -20.97615968	      3.40468921	      0.28075727	      0.00368718	     -0.29758878	    -12.66923393	    158.88747738	      9.75693992	     -7.75705274	     -0.20823609	     -6.59825228	     12.66923393	   -158.88747738	     -9.75693992	      4.42170509	      0.12125540	      3.68379780	     -5.57850191	    232.85079628	     15.00380124	     -1.20518455	      0.28559238	     -3.95988324	      5.57850191	   -232.85079628	    -15.00380124	     -3.95310680	     -0.45488054	      4.66925976	      0.00000000	      0.00000000	      0.00000000	      0.00000000	      0.00000000	      0.00000000	      0.00000000	      0.00000000	      0.00000000	      0.00000000	      0.00000000	      0.00000000	      0.00000000	      0.00000000	      0.00000000	      0.00000000	      0.00000000	      0.00000000	      0.00000000	      0.00000000	      0.00000000	      0.00000000	      0.00000000	      0.00000000	    -14.44065283	   -656.43374391	      2.07122056	    -12.27074856	      0.27372974	      9.35370376	     14.44065283	    656.43374391	     -2.07122056	     14.74259711	     -0.28529730	      4.21402849	     22.09416702	   -106.59517053	    -26.65380613	      3.51174562	      0.12479970	      2.41857678	    -22.09416702	    106.59517053	     26.65380613	    -13.46002803	     -0.39439670	     -9.58683163	     59.80609090	     63.30940531	      0.00000000	      0.00000000	      0.00000000	      7.74660172	      0.00000000	      0.00000000	      0.00000000	      0.00000000	      0.00000000	      0.00000000	      0.00000001	      0.00000000
      0.09279471	     17.80825749	     12.64441138	     13.66212967	      5.74598434	      6.56153055	      7.51990495	    143.96102395	    183.74929025	    158.85129213	    308.20862920	    134.76861501	     12.63997557	      8.88585776	      6.49204417	      5.55628768	      9.59311118	      6.81571848	      4.86419955	    109.68752648	      8.18503000	     12.46007036	      9.41428171	     35.55183655	     27.64445947	      7.96722111	      4.98200329	     11.02078965	     43.43075841	     37.40682013	     38.92760348	     48.87559490	      0.00000000	      4.34089486	      0.00000000	      0.00000000	      0.00000000	      0.00000000	     35.63583271	      9.48988438	     12.53338793	     14.61308622	     23.00959396	      6.10828097	     17.80825749	     12.64441138	     13.66212967	      5.74598434	      6.56153055	      7.51990495	     22.64782654	      9.57757779	     19.57058947	     15.86673614	      3.27255454	     12.63997557	      8.88585776	      6.49204417	      5.55628768	      9.59311118	      7.57582751	      4.86419955	      3.40120102	      8.18503000	     12.46007036	      9.41428171	     35.55183655	     27.64445947	      7.96722111	      4.98200329	     11.02078965	     26.98243358	     15.05760246	     17.49132974	     18.80031857	     39.22124857	     18.25275225	     83.96364992	     65.31094013	      8.95589583	      8.80180336	     20.96056618	     11.36555837	     27.60046244	      4.26842203	     13.90887642	      4.34440506	     54.13137954	     54.13137954	     20.70061070	     20.70061070	     37.46563018	     37.46563018	      2.76307435	     50.99597937	     -9.56042239	      5.21997485	     -0.02578839	      1.48581788	     -2.76307435	    -50.99597937	      9.56042239	     -1.74637766	      0.02558040	     -0.48301696	     -3.31599387	     20.97615968	     -3.40468921	      0.94473225	     -0.02138609	     -1.00501789	      3.31599387	    -20.97615968	      3.40468921	      0.28075727	      0.00368718	     -0.29758878	    -11.90483218	    158.60756562	      9.38626189	     -7.58997760	     -0.19065933	     -6.28808722	     11.90483218	   -158.60756562	     -9.38626189	      4.39365324	      0.10525488	      3.67725944	     -6.89841937	    236.29768456	     14.49672679	     -0.90479859	      0.31756035	     -4.55466242	      6.89841937	   -236.29768456	    -14.49672679	     -4.05382639	     -0.47865996	      4.82098392	      0.00000000	      0.00000000	      0.00000000	      0.00000000	      0.00000000	      0.00000000	      0.00000000	      0.00000000	      0.00000000	      0.00000000	      0.00000000	      0.00000000	      0.00000000	      0.00000000	      0.00000000	      0.00000000	      0.00000000	      0.00000000	      0.00000000	      0.00000000	      0.00000000	      0.00000000	      0.00000000	      0.00000000	    -13.00913625	   -643.83119398	      1.46835013	    -12.03978290	      0.23830932	      9.34078712	     13.00913625	    643.83119398	     -1.46835013	     14.23907539	     -0.25327714	      3.58129806	     21.59802028	   -104.28057779	    -25.65194367	      3.41465170	      0.12306864	      2.38227388	    -21.59802028	    104.28057779	     25.65194367	    -12.98653854	     -0.38426750	     -9.37963206	     56.60296566	     59.66446029	      0.00000000	      0.00000000	      0.00000000	      6.14429337	      0.00000000	      0.00000000	      0.00000000	      0.00000000	      0.00000000	      0.00000000	      0.00000001	      0.00000000
